<svg width="182" height="24" viewBox="0 0 182 24" fill="none" xmlns="http://www.w3.org/2000/svg">
<path d="M20 11.25C20 16.7728 15.5228 21.25 10 21.25C4.47715 21.25 0 16.7728 0 11.25C0 5.72715 4.47715 1.25 10 1.25C15.5228 1.25 20 5.72715 20 11.25Z" fill="black"/>
<path d="M40.6719 20.8125C44.0885 20.8125 45.7969 18.7135 45.7969 14.5156V1.5H48.9219V14.5156C48.9219 17.5885 48.1458 19.8906 46.5938 21.4219C45.1875 22.8073 43.2135 23.5 40.6719 23.5C36.7448 23.5 34.1979 21.8802 33.0312 18.6406C32.6146 17.5052 32.4062 16.1302 32.4062 14.5156V1.5H35.5312V14.5156C35.5312 18.7135 37.2448 20.8125 40.6719 20.8125Z" fill="black"/>
<path d="M60.3913 9.5625C58.8392 9.5625 57.459 10.0885 56.2506 11.1406V23.25H53.1256V7.125H56.0163L56.235 8.875C57.9329 7.54167 59.6881 6.875 61.5006 6.875C63.4173 6.875 64.8235 7.44792 65.7194 8.59375C66.6569 9.80208 67.1256 11.75 67.1256 14.4375V23.25H64.0006V14.4375C64.0006 11.8542 63.3027 10.3125 61.9069 9.8125C61.459 9.64583 60.9538 9.5625 60.3913 9.5625Z" fill="black"/>
<path d="M76.97 20.7812C77.3138 20.9062 77.8346 20.9688 78.5325 20.9688C79.2304 20.9688 79.8138 20.8854 80.2825 20.7188V23.2188C80.0638 23.2708 79.746 23.3021 79.3294 23.3125L78.345 23.3438C78.1263 23.3438 77.9596 23.3438 77.845 23.3438C75.8346 23.3438 74.3502 22.6875 73.3919 21.375C72.621 20.3125 72.2356 18.9062 72.2356 17.1562V9.51562H69.9231V8.04688L72.2356 7.125L72.9856 3.125H75.3606V7.125H80.3606V9.51562H75.3606V17.1406C75.3606 19.1823 75.8971 20.3958 76.97 20.7812Z" fill="black"/>
<path d="M87.5175 2.4375C87.5175 3.03125 87.3196 3.48958 86.9238 3.8125C86.5383 4.125 86.054 4.28125 85.4706 4.28125C84.8873 4.28125 84.4029 4.125 84.0175 3.8125C83.6425 3.48958 83.455 3.03125 83.455 2.4375C83.455 1.83333 83.6425 1.375 84.0175 1.0625C84.4029 0.75 84.8873 0.59375 85.4706 0.59375C86.054 0.59375 86.5383 0.75 86.9238 1.0625C87.3196 1.375 87.5175 1.83333 87.5175 2.4375ZM83.8613 7.125H86.9863V23.25H83.8613V7.125Z" fill="black"/>
<path d="M97.065 20.7812C97.4088 20.9062 97.9296 20.9688 98.6275 20.9688C99.3254 20.9688 99.9088 20.8854 100.378 20.7188V23.2188C100.159 23.2708 99.841 23.3021 99.4244 23.3125L98.44 23.3438C98.2213 23.3438 98.0546 23.3438 97.94 23.3438C95.9296 23.3438 94.4452 22.6875 93.4869 21.375C92.716 20.3125 92.3306 18.9062 92.3306 17.1562V9.51562H90.0181V8.04688L92.3306 7.125L93.0806 3.125H95.4556V7.125H100.456V9.51562H95.4556V17.1406C95.4556 19.1823 95.9921 20.3958 97.065 20.7812Z" fill="black"/>
<path d="M104.644 0H107.769V17.1406C107.769 19.2031 108.238 20.4167 109.175 20.7812C109.488 20.9062 109.821 20.9688 110.175 20.9688C110.529 20.9688 110.847 20.9271 111.128 20.8438V23.25L110.55 23.3125C110.363 23.3333 110.18 23.3438 110.003 23.3438C108.003 23.3438 106.56 22.6875 105.675 21.375C104.988 20.3438 104.644 18.9375 104.644 17.1562V0Z" fill="black"/>
<path d="M121.551 23.5C115.655 23.5 112.707 20.6198 112.707 14.8594C112.707 12.3802 113.525 10.3958 115.16 8.90625C116.629 7.55208 118.306 6.875 120.191 6.875C122.243 6.875 123.848 7.5625 125.004 8.9375C126.077 10.2188 126.613 11.9323 126.613 14.0781V15.2969H115.957C115.957 18.2448 117.16 20.0469 119.566 20.7031C120.139 20.8594 121.019 20.9375 122.207 20.9375C123.405 20.9375 124.577 20.776 125.723 20.4531V23.0938C124.577 23.3646 123.186 23.5 121.551 23.5ZM123.488 13C123.488 12 123.212 11.1562 122.66 10.4688C122.014 9.67708 121.124 9.28125 119.988 9.28125C118.79 9.28125 117.816 9.66146 117.066 10.4219C116.379 11.1302 116.035 11.9896 116.035 13H123.488Z" fill="black"/>
<path d="M131.848 8.89062C132.754 8.19271 133.77 7.68229 134.895 7.35938C136.03 7.03646 137.02 6.875 137.864 6.875C138.707 6.875 139.359 6.89583 139.817 6.9375V0H142.926V23.25H140.129L140.004 21.3906C139.369 22.2344 138.405 22.8594 137.114 23.2656C136.614 23.4219 136.103 23.5 135.582 23.5C135.072 23.5 134.567 23.4479 134.067 23.3438C133.567 23.2396 133.067 23.0677 132.567 22.8281C132.077 22.5781 131.609 22.2552 131.161 21.8594C130.713 21.4531 130.312 20.9583 129.957 20.375C129.207 19.0938 128.832 17.5781 128.832 15.8281C128.832 14.0781 129.109 12.6615 129.661 11.5781C130.223 10.4844 130.952 9.58854 131.848 8.89062ZM133.739 10.75C133.207 11.25 132.796 11.8958 132.504 12.6875C132.223 13.4688 132.082 14.4219 132.082 15.5469C132.082 16.6615 132.218 17.5833 132.489 18.3125C132.76 19.0312 133.098 19.5938 133.504 20C134.223 20.7292 135.088 21.0938 136.098 21.0938C137.4 21.0938 138.478 20.6146 139.332 19.6562C139.551 19.4167 139.707 19.2031 139.801 19.0156V9.40625L139.489 9.375C139.01 9.3125 138.437 9.28125 137.77 9.28125C137.114 9.28125 136.411 9.40104 135.661 9.64062C134.911 9.86979 134.27 10.2396 133.739 10.75Z" fill="black"/>
<path d="M165.693 20.8125C169.11 20.8125 170.818 18.7135 170.818 14.5156V1.5H173.943V14.5156C173.943 17.5885 173.167 19.8906 171.615 21.4219C170.209 22.8073 168.235 23.5 165.693 23.5C161.766 23.5 159.219 21.8802 158.052 18.6406C157.636 17.5052 157.427 16.1302 157.427 14.5156V1.5H160.552V14.5156C160.552 18.7135 162.266 20.8125 165.693 20.8125Z" fill="black"/>
<path d="M178.163 1.5H181.288V23.25H178.163V1.5Z" fill="black"/>
</svg>
